<svg width="42" height="37" viewBox="0 0 42 37" fill="none" xmlns="http://www.w3.org/2000/svg">
<path d="M36.7281 4.56C38.6634 6.5155 39.75 9.16309 39.75 11.9231C39.75 14.6832 38.6634 17.3307 36.7281 19.2862L20.745 35.5L4.76178 19.2862C3.32444 17.8299 2.34587 15.9791 1.94858 13.9657C1.55129 11.9523 1.75293 9.8657 2.52825 7.96707C3.30357 6.06844 4.61813 4.44217 6.30736 3.29183C7.99659 2.14149 9.98544 1.51821 12.0249 1.5C14.7521 1.51665 17.3624 2.61639 19.2881 4.56C19.8497 5.11935 20.3392 5.74762 20.745 6.43C21.1507 5.74762 21.6402 5.11935 22.2018 4.56C23.1506 3.59112 24.2813 2.82173 25.5282 2.29659C26.7751 1.77144 28.1133 1.501 29.465 1.501C30.8166 1.501 32.1548 1.77144 33.4017 2.29659C34.6486 2.82173 35.7793 3.59112 36.7281 4.56Z" fill="black" stroke="black" stroke-width="3" stroke-linecap="round" stroke-linejoin="round"/>
</svg>
