<svg width="28" height="28" viewBox="0 0 28 28" fill="none" xmlns="http://www.w3.org/2000/svg">
<path d="M14 3.06891C10.44 3.06891 10.0178 3.08224 8.61223 3.14669C7.09445 3.21558 5.68667 3.52002 4.60334 4.60335C3.52 5.68669 3.21556 7.09446 3.14667 8.61224C3.08223 10.0178 3.06889 10.44 3.06889 14C3.06889 17.56 3.08223 17.9822 3.14667 19.3878C3.21556 20.9056 3.52 22.3134 4.60334 23.3967C5.68667 24.48 7.09445 24.7845 8.61223 24.8534C10.0178 24.9178 10.44 24.9311 14 24.9311C17.56 24.9311 17.9822 24.9178 19.3878 24.8534C20.9056 24.7845 22.3133 24.48 23.3967 23.3967C24.48 22.3134 24.7844 20.9056 24.8533 19.3878C24.9178 17.9822 24.9311 17.56 24.9311 14C24.9311 10.44 24.9178 10.0178 24.8533 8.61224C24.7844 7.09446 24.48 5.68669 23.3967 4.60335C22.3133 3.52002 20.9056 3.21558 19.3878 3.14669C17.9822 3.08224 17.56 3.06891 14 3.06891ZM14 0.666687C17.6211 0.666687 18.0756 0.682243 19.4978 0.746687C21.6644 0.845576 23.5678 1.37669 25.0956 2.90446C26.6233 4.43224 27.1544 6.33558 27.2533 8.50224C27.3178 9.92447 27.3333 10.3789 27.3333 14C27.3333 17.6211 27.3178 18.0756 27.2533 19.4978C27.1544 21.6645 26.6233 23.5678 25.0956 25.0956C23.5678 26.6234 21.6644 27.1545 19.4978 27.2534C18.0756 27.3178 17.6211 27.3334 14 27.3334C10.3789 27.3334 9.92445 27.3178 8.50223 27.2534C6.33556 27.1545 4.43223 26.6234 2.90445 25.0956C1.37667 23.5678 0.845561 21.6645 0.746672 19.4978C0.682227 18.0756 0.666672 17.6211 0.666672 14C0.666672 10.3789 0.682227 9.92447 0.746672 8.50224C0.845561 6.33558 1.37667 4.43224 2.90445 2.90446C4.43223 1.37669 6.33556 0.845576 8.50223 0.746687C9.92445 0.682243 10.3789 0.666687 14 0.666687ZM14 7.15335C17.7811 7.15335 20.8467 10.2189 20.8467 14C20.8467 17.7811 17.7811 20.8467 14 20.8467C10.2189 20.8467 7.15334 17.7811 7.15334 14C7.15334 10.2189 10.2189 7.15335 14 7.15335ZM14 18.4445C16.4544 18.4445 18.4445 16.4545 18.4445 14C18.4445 11.5456 16.4544 9.55558 14 9.55558C11.5456 9.55558 9.55556 11.5456 9.55556 14C9.55556 16.4545 11.5456 18.4445 14 18.4445ZM21.1178 8.48224C20.2341 8.48224 19.5178 7.7659 19.5178 6.88224C19.5178 5.99859 20.2341 5.28224 21.1178 5.28224C22.0014 5.28224 22.7178 5.99859 22.7178 6.88224C22.7178 7.7659 22.0014 8.48224 21.1178 8.48224Z" fill="black"/>
</svg>
