<svg width="150" height="188" viewBox="0 0 150 188" fill="none" xmlns="http://www.w3.org/2000/svg">
<path d="M75.1566 0C33.6487 0 0 33.6487 0 75.1566C0 77.6618 0 80.167 0.313152 82.3591V83.2985C6.5762 142.798 75.1566 187.891 75.1566 187.891C75.1566 187.891 143.737 142.171 149.687 83.6117V82.3591C150 79.8539 150 77.6618 150 75.1566C150 33.7707 116.542 0.172441 75.1566 0ZM75.1566 106.472C57.8617 106.472 43.8413 92.4515 43.8413 75.1566C43.8413 57.8617 57.8617 43.8413 75.1566 43.8413C92.4515 43.8413 106.472 57.8617 106.472 75.1566C106.472 92.4515 92.4515 106.472 75.1566 106.472Z" fill="#694C9B" fill-opacity="0.35"/>
</svg>
